<?xml version="1.0" encoding="UTF-8" standalone="no"?>
<!-- Created with Inkscape (http://www.inkscape.org/) -->

<svg
   width="110"
   height="110"
   viewBox="0 0 110 110"
   version="1.1"
   id="svg1"
   xml:space="preserve"
   inkscape:version="1.3 (0e150ed6c4, 2023-07-21)"
   sodipodi:docname="tap.svg"
   xmlns:inkscape="http://www.inkscape.org/namespaces/inkscape"
   xmlns:sodipodi="http://sodipodi.sourceforge.net/DTD/sodipodi-0.dtd"
   xmlns="http://www.w3.org/2000/svg"
   xmlns:svg="http://www.w3.org/2000/svg"><sodipodi:namedview
     id="namedview1"
     pagecolor="#ffffff"
     bordercolor="#000000"
     borderopacity="0.25"
     inkscape:showpageshadow="2"
     inkscape:pageopacity="0.0"
     inkscape:pagecheckerboard="0"
     inkscape:deskcolor="#d1d1d1"
     inkscape:document-units="px"
     showgrid="true"
     inkscape:zoom="5.6568542"
     inkscape:cx="60.546019"
     inkscape:cy="68.50097"
     inkscape:window-width="1920"
     inkscape:window-height="1017"
     inkscape:window-x="-8"
     inkscape:window-y="-8"
     inkscape:window-maximized="1"
     inkscape:current-layer="layer1"><inkscape:grid
       id="grid1"
       units="px"
       originx="0"
       originy="0"
       spacingx="1"
       spacingy="1"
       empcolor="#0099e5"
       empopacity="0.30196078"
       color="#0099e5"
       opacity="0.14901961"
       empspacing="5"
       dotted="false"
       gridanglex="30"
       gridanglez="30"
       visible="true" /></sodipodi:namedview><defs
     id="defs1" /><g
     inkscape:label="Слой 1"
     inkscape:groupmode="layer"
     id="layer1"><g
       id="g17"
       transform="matrix(1.4160618,0,0,1.4086448,-88.595626,-136.60297)"
       inkscape:export-filename="..\..\..\Desktop\GAME_PROJECTS\HTML\own\stick_bridge\publish\desktop\tap.png"
       inkscape:export-xdpi="96"
       inkscape:export-ydpi="96"><path
         style="fill:#f6cd99;fill-opacity:1;stroke:#0bffbb;stroke-width:2;stroke-linecap:round;stroke-linejoin:round;stroke-dasharray:none;stroke-dashoffset:0;stroke-opacity:1;paint-order:markers fill stroke"
         d="m 85.769198,134.44107 c -5.120847,-4.2888 -12.11851,-16.10842 -16.862837,-24.78027 -0.827175,-2.05983 -0.808709,-3.61983 0.184311,-5.22461 1.329347,-1.42473 2.957782,-2.2596 4.28713,-2.68068 1.853228,-0.68756 3.067709,0.16129 4.385988,1.40139 l 10.378419,11.74316 7.329109,-2.38893 3.47532,2.35961 7.224182,-1.47826 3.07737,3.46925 4.47144,-0.60425 c 5.6261,7.64618 7.08182,16.19782 10.39308,24.89505 2.5682,2.89192 5.33533,5.5849 7.82675,8.55361 0.85392,1.01751 1.67545,2.06741 2.44548,3.16882 0.50846,1.09986 0.81399,2.17402 -0.36255,3.38379 -7.75201,6.80061 -16.2066,12.65067 -27.79544,14.26027 -1.38492,-0.18809 -2.75263,-0.62631 -4.2664,-3.25079 L 96.558965,155.8962 c -1.704214,-2.09704 -3.928906,-4.06045 -6.049819,-5.10376 l -3.980711,-1.18043 c -5.55909,-0.73721 -11.118179,-3.19265 -16.677269,-5.07569 -2.435659,-2.58315 -3.082779,-7.29728 1.64917,-9.42628 4.124229,1.30334 8.921476,0.94522 12.788445,0.69486 z"
         id="path1"
         sodipodi:nodetypes="ccccccccccccsccccccccccc" /><path
         style="fill:#9f9f9f;fill-opacity:1;stroke:none;stroke-width:2;stroke-linecap:round;stroke-linejoin:round;stroke-dasharray:none;stroke-dashoffset:0;stroke-opacity:1;paint-order:markers fill stroke"
         d="m 97.135777,154.82803 c 6.802263,-6.43348 13.674203,-10.2581 26.506933,-12.92778 l 10.74223,10.97471 -0.36255,3.38379 c -7.6739,7.56067 -16.96775,12.26346 -27.79544,14.26027 l -4.2664,-3.25079 z"
         id="path2"
         sodipodi:nodetypes="ccccccc" /><path
         style="fill:#363636;fill-opacity:1;stroke:none;stroke-width:2;stroke-linecap:round;stroke-linejoin:round;stroke-dasharray:none;stroke-dashoffset:0;stroke-opacity:1;paint-order:markers fill stroke"
         d="m 96.793962,155.19121 c 5.876688,-5.96956 15.036228,-10.62355 20.947878,-11.86607 -6.48388,2.41566 -15.46886,7.19476 -17.07739,10.70514 -0.58321,1.71474 1.72109,4.72623 2.8627,4.91359 0.37721,0.0488 0.96344,-0.0764 1.45787,-0.61928 2.365,-2.59687 10.67681,-11.07477 18.14888,-11.45839 -5.68321,1.71325 -14.21697,7.20076 -18.53858,13.44492 -0.29629,0.66446 0.61789,4.10969 2.2752,4.44359 0.64733,0.0357 1.28845,-0.28443 1.66038,-0.64031 6.45806,-5.94751 13.36994,-10.31557 21.61507,-10.98139 1.80712,-0.0803 4.11324,0.91539 3.53564,2.18976 -7.32389,7.11502 -16.40554,12.29996 -27.83637,14.90541 -5.50253,-4.1668 -7.10908,-9.54625 -9.051278,-15.03697 z"
         id="path3"
         sodipodi:nodetypes="ccccscccccccc" /><path
         style="fill:#ffffff;fill-opacity:0.283368;stroke:none;stroke-width:2;stroke-linecap:round;stroke-linejoin:round;stroke-dasharray:none;stroke-dashoffset:0;stroke-opacity:1;paint-order:markers fill stroke"
         d="m 88.059787,115.90597 7.349259,-2.33801 3.351857,2.27263 7.081947,-1.43061 2.9397,3.38793 4.44359,-0.46999 c 5.48245,7.43799 7.40657,16.25868 10.41657,24.57233 -1.75499,0.37701 -3.51425,0.765 -5.31646,1.26359 -0.51052,-8.86715 -1.39379,-18.09131 -9.58643,-25.02411 -2.96826,-3.29307 -5.43214,-2.66377 -9.634902,-2.07225 l 3.589052,2.81997 c -4.524749,-1.97886 -7.220639,-4.91541 -14.676668,-2.43543 -1.114842,-1.55687 -3.260522,-3.50455 -4.879652,-5.01118 -2.251263,-2.23703 -4.00168,-4.23754 -5.699639,-2.84563 1.697959,-2.10944 1.652815,-2.27165 1.697959,-2.10944 z"
         id="path4"
         sodipodi:nodetypes="cccccccccccccccc" /><path
         style="fill:#e9a138;fill-opacity:1;stroke:none;stroke-width:2;stroke-linecap:round;stroke-linejoin:round;stroke-dasharray:none;stroke-dashoffset:0;stroke-opacity:1;paint-order:markers fill stroke"
         d="m 87.633254,116.05755 5.152414,5.01239 -3.880285,-5.47202 z"
         id="path5"
         sodipodi:nodetypes="cccc" /><path
         style="fill:#e9a138;fill-opacity:1;stroke:none;stroke-width:2;stroke-linecap:round;stroke-linejoin:round;stroke-dasharray:none;stroke-dashoffset:0;stroke-opacity:1;paint-order:markers fill stroke"
         d="m 99.104918,116.06748 1.069972,-0.24133 3.28367,3.45392 z"
         id="path6" /><path
         style="fill:#edb35f;fill-opacity:1;stroke:none;stroke-width:2;stroke-linecap:round;stroke-linejoin:round;stroke-dasharray:none;stroke-dashoffset:0;stroke-opacity:1;paint-order:markers fill stroke"
         d="m 84.941202,136.67048 c 2.203453,-0.84688 5.954744,-2.04234 2.673747,-5.19281 -6.803701,-8.20506 -12.743362,-16.76889 -17.125242,-26.18505 -0.600942,0.0662 -1.240091,1.38336 -1.104854,2.51907 2.451391,7.00451 11.281652,20.89232 16.639107,25.38955 0.707175,1.27966 -0.326473,2.35845 -1.082758,3.46924 z"
         id="path7"
         sodipodi:nodetypes="cccccc" /><path
         style="fill:#ffe8cb;fill-opacity:1;stroke:none;stroke-width:2;stroke-linecap:round;stroke-linejoin:round;stroke-dasharray:none;stroke-dashoffset:0;stroke-opacity:1;paint-order:markers fill stroke"
         d="m 75.107998,102.81775 c -1.857039,0.7246 -3.72176,2.61882 -3.557631,2.65165 l 2.695845,3.93328 4.517625,-3.42612 c -1.191693,-1.13145 -2.239839,-2.68159 -3.655839,-3.15881 z"
         id="path8"
         sodipodi:nodetypes="ccccc" /><path
         style="fill:#bc9260;fill-opacity:1;stroke:none;stroke-width:2;stroke-linecap:round;stroke-linejoin:round;stroke-dasharray:none;stroke-dashoffset:0;stroke-opacity:1;paint-order:markers fill stroke"
         d="m 74.636723,103.02543 c -1.343949,0.60943 -2.439238,1.30248 -3.338902,2.40786 l 3.00932,4.54597 c 1.531894,-1.17592 3.210255,-2.54898 4.507644,-3.90219 l -0.05095,-0.10051 c -1.485508,1.12659 -2.97042,2.25274 -4.517625,3.42612 l -2.695845,-3.93328 c 0.263804,-0.54378 2.015082,-1.92712 3.086358,-2.44397 z"
         id="path9"
         sodipodi:nodetypes="cccccccc" /><path
         style="fill:#edb35f;fill-opacity:1;stroke:none;stroke-width:2;stroke-linecap:round;stroke-linejoin:round;stroke-dasharray:none;stroke-dashoffset:0;stroke-opacity:1;paint-order:markers fill stroke"
         d="m 80.10194,116.8052 c -0.568988,-1.63975 2.130779,-4.82219 4.308088,-4.13621 -2.359792,1.06267 -3.465217,2.54746 -4.308088,4.13621 z"
         id="path10"
         sodipodi:nodetypes="ccc" /><path
         style="fill:#edb35f;fill-opacity:1;stroke:none;stroke-width:2;stroke-linecap:round;stroke-linejoin:round;stroke-dasharray:none;stroke-dashoffset:0;stroke-opacity:1;paint-order:markers fill stroke"
         d="m 84.753377,113.54588 c -1.350384,0.77103 -2.568747,2.03245 -3.494764,3.13427 -0.09557,0.11372 -0.239629,0.004 -0.350129,-0.0959 0.667563,-1.54547 2.811459,-3.00281 3.575046,-3.17019 0.189385,-0.0415 0.293862,-0.004 0.269847,0.13184 z"
         id="path11"
         sodipodi:nodetypes="cscscc" /><path
         style="fill:#ffe8cb;fill-opacity:1;stroke:none;stroke-width:2;stroke-linecap:round;stroke-linejoin:round;stroke-dasharray:none;stroke-dashoffset:0;stroke-opacity:1;paint-order:markers fill stroke"
         d="m 69.826795,138.34986 3.314563,0.50823 c 0.691482,1.76539 0.663146,3.73645 0.541378,5.7342 l -3.480291,-1.35897 c -0.922349,-1.64856 -1.47784,-3.78537 -0.37565,-4.88346 z"
         id="path12"
         sodipodi:nodetypes="ccccc" /><path
         style="fill:#bc9260;fill-opacity:1;stroke:none;stroke-width:2;stroke-linecap:round;stroke-linejoin:round;stroke-dasharray:none;stroke-dashoffset:0;stroke-opacity:1;paint-order:markers fill stroke"
         d="m 73.682736,144.59229 0.23202,0.0663 c 0.495041,-2.29572 0.450678,-4.53124 -0.493394,-6.12704 -1.138694,-0.27951 -2.026332,-0.36643 -3.274159,-0.44132 l -0.320408,0.25964 3.314563,0.50822 c 0.756247,2.05088 0.622539,3.81875 0.541378,5.7342 z"
         id="path13"
         sodipodi:nodetypes="ccccccc" /><path
         style="fill:#e5921a;fill-opacity:0.408624;stroke:none;stroke-width:2;stroke-linecap:round;stroke-linejoin:round;stroke-dasharray:none;stroke-dashoffset:0;stroke-opacity:1;paint-order:markers fill stroke"
         d="m 68.981581,140.39384 c 4.346532,1.75947 8.832486,4.2175 14.018384,4.66215 4.103656,0.35186 7.354299,0.79351 10.77872,2.3118 1.816262,0.80528 3.618455,2.06511 5.782046,3.37908 0.421076,0.22705 0.811809,0.53135 1.184329,0.90032 l -3.951098,3.54402 c -2.385711,-2.54527 -4.651957,-5.16222 -9.668962,-6.12871 -5.69205,-1.16864 -11.262762,-3.3693 -16.767875,-5.34857 -0.882545,-1.03868 -1.366828,-2.27143 -1.375544,-3.32009 z"
         id="path14"
         sodipodi:nodetypes="csscccccc" /><path
         style="fill:#edb35f;fill-opacity:1;stroke:none;stroke-width:2;stroke-linecap:round;stroke-linejoin:round;stroke-dasharray:none;stroke-dashoffset:0;stroke-opacity:1;paint-order:markers fill stroke"
         d="m 85.3125,114.28125 c -1.065778,1.13091 -1.987987,2.45923 -3.6875,2.71875 -0.126932,0.20976 -0.10154,0.38905 0.1875,0.51562 1.925623,-0.0784 3.008544,-1.95393 3.5,-3.23437 z"
         id="path15"
         sodipodi:nodetypes="cccc" /><path
         style="fill:#000000;fill-opacity:0.365503;stroke:none;stroke-width:2;stroke-linecap:round;stroke-linejoin:round;stroke-dasharray:none;stroke-dashoffset:0;stroke-opacity:1;paint-order:markers fill stroke"
         d="m 97.135777,154.82803 3.609283,-3.18084 c 5.03856,5.39683 5.23777,16.04132 15.0153,15.80453 -2.84366,1.69817 -6.18136,2.56896 -9.91512,2.77646 -5.15591,-3.20424 -6.824133,-9.9531 -8.709463,-15.40015 z"
         id="path16"
         sodipodi:nodetypes="ccccc" /><path
         style="fill:#ffffff;fill-opacity:0.574949;stroke:none;stroke-width:2;stroke-linecap:round;stroke-linejoin:round;stroke-dasharray:none;stroke-dashoffset:0;stroke-opacity:1;paint-order:markers fill stroke"
         d="m 123.64271,141.90025 c -6.12835,0.057 -11.25507,2.53926 -16.21956,5.41433 5.75807,-2.59873 10.05881,-4.85734 14.71932,-3.98944 l 2.89659,2.50298 c -3.77735,0.94209 -7.24522,1.29119 -10.23771,4.10367 3.99326,-2.61057 8.64252,-3.63386 11.12275,-3.02064 l 4.88943,4.96762 c -6.7854,0.61252 -12.80214,4.12353 -17.39291,8.14363 4.71197,-4.04247 18.07868,-9.59196 20.34129,-5.23001 l 0.49336,-0.7072 -3.16684,-4.57808 z"
         id="path17"
         sodipodi:nodetypes="cccccccccccc" /><path
         style="fill:none;fill-opacity:1;stroke:#000000;stroke-width:2;stroke-linecap:round;stroke-linejoin:round;stroke-dasharray:none;stroke-dashoffset:0;stroke-opacity:1;paint-order:markers fill stroke"
         d="m 85.769201,134.44107 c -5.12085,-4.2888 -12.11851,-16.10842 -16.86284,-24.78027 -0.82717,-2.05983 -0.80871,-3.61983 0.18431,-5.22461 1.32935,-1.42473 2.95778,-2.2596 4.28713,-2.68068 1.85323,-0.68756 3.06771,0.16129 4.38599,1.40139 l 10.37842,11.74316 7.32911,-2.38893 3.47532,2.35961 7.224179,-1.47826 3.07737,3.46925 4.47144,-0.60425 c 5.6261,7.64618 7.08182,16.19782 10.39308,24.89505 3.44844,3.88311 7.25555,7.40755 10.27223,11.72243 0.50846,1.09986 0.81399,2.17402 -0.36255,3.38379 -7.75201,6.80061 -16.2066,12.65067 -27.79544,14.26027 -1.38492,-0.18809 -2.75263,-0.62631 -4.2664,-3.25079 L 96.558961,155.8962 c -1.70421,-2.09704 -3.9289,-4.06045 -6.04982,-5.10376 l -3.9807,-1.18043 c -5.55909,-0.73721 -11.11818,-3.19265 -16.67727,-5.07569 -2.43566,-2.58315 -3.08278,-7.29728 1.64917,-9.42628 4.12423,1.30334 8.92147,0.94522 12.78844,0.69486 z"
         id="path1-1"
         sodipodi:nodetypes="ccccccccccccccccccccccc" /></g></g></svg>
