<?xml version="1.0" encoding="UTF-8" standalone="no"?>
<svg
   version="1.1"
   width="120"
   height="120"
   viewBox="0 0 120 120"
   xml:space="preserve"
   id="svg1"
   sodipodi:docname="again.svg"
   inkscape:export-filename=".\repeatbttn.png"
   inkscape:export-xdpi="96"
   inkscape:export-ydpi="96"
   inkscape:version="1.3 (0e150ed6c4, 2023-07-21)"
   xmlns:inkscape="http://www.inkscape.org/namespaces/inkscape"
   xmlns:sodipodi="http://sodipodi.sourceforge.net/DTD/sodipodi-0.dtd"
   xmlns="http://www.w3.org/2000/svg"
   xmlns:svg="http://www.w3.org/2000/svg"><sodipodi:namedview
   id="namedview1"
   pagecolor="#ffffff"
   bordercolor="#000000"
   borderopacity="0.25"
   inkscape:showpageshadow="2"
   inkscape:pageopacity="0.0"
   inkscape:pagecheckerboard="0"
   inkscape:deskcolor="#d1d1d1"
   showgrid="true"
   inkscape:zoom="4.973318"
   inkscape:cx="53.18381"
   inkscape:cy="62.232095"
   inkscape:window-width="1904"
   inkscape:window-height="1017"
   inkscape:window-x="0"
   inkscape:window-y="0"
   inkscape:window-maximized="0"
   inkscape:current-layer="g2"><inkscape:grid
     id="grid1"
     units="px"
     originx="0"
     originy="0"
     spacingx="1"
     spacingy="1"
     empcolor="#0099e5"
     empopacity="0.30196078"
     color="#0099e5"
     opacity="0.14901961"
     empspacing="5"
     dotted="false"
     gridanglex="30"
     gridanglez="30"
     visible="true" /></sodipodi:namedview>&#10;&#10;<defs
   id="defs1" />&#10;<g
   id="g2"><path
     id="path6"
     style="fill:#000000;fill-opacity:0.753593;stroke:none;stroke-width:1.1;stroke-linecap:square;stroke-linejoin:round;stroke-dasharray:none;stroke-opacity:1;paint-order:markers fill stroke"
     d="M 60,5 A 55,55 0 0 0 5,60 55,55 0 0 0 60,115 55,55 0 0 0 115,60 55,55 0 0 0 60,5 Z M 74.922091,30.055555 86.888886,42.019965 74.922091,53.981988 V 45.116103 H 45.077909 v 10.837673 c 0,0.623798 -0.502803,1.126736 -1.126737,1.126736 h -3.94119 c -0.623933,0 -1.126736,-0.502938 -1.126736,-1.126736 V 43.989367 43.285156 40.048177 c 0,-0.623799 0.502804,-1.124349 1.126736,-1.124349 h 34.912109 z m 1.126737,32.863933 h 3.94119 c 0.623934,0 1.126736,0.502935 1.126736,1.126736 v 11.964409 0.704211 3.236979 c 0,0.623803 -0.502802,1.124349 -1.126736,1.124349 H 45.077909 v 8.868275 L 33.111111,77.980035 45.077909,66.018012 v 8.865885 H 74.922091 V 64.046224 c 0,-0.623801 0.502801,-1.126736 1.126737,-1.126736 z"
     inkscape:export-filename="..\..\..\Desktop\GAME_PROJECTS\HTML\own\stick_bridge\assets\againbttn.png"
     inkscape:export-xdpi="96"
     inkscape:export-ydpi="96" /><rect
     style="fill:#ffffff;fill-opacity:0;stroke-width:2.6;stroke-linecap:square;stroke-linejoin:round;paint-order:stroke markers fill"
     id="rect1"
     width="120"
     height="120"
     x="0"
     y="0"
     ry="0" /></g>&#10;</svg>
